<svg xmlns="http://www.w3.org/2000/svg" viewBox="0 0 64 64" role="img" aria-label="UJIIN">
  <defs>
    <linearGradient id="blue" x1="0%" y1="0%" x2="100%" y2="100%">
      <stop offset="0%" stop-color="#67c1ff" />
      <stop offset="100%" stop-color="#2d97ea" />
    </linearGradient>
  </defs>
  <rect width="64" height="64" rx="16" fill="#ffffff" />
  <path d="M12 14h10v23c0 4.1 2.7 6.7 7.4 6.7S37 41.1 37 37V14h10v23.4C47 47.3 40 54 29.4 54S12 47.3 12 37.4V14Z" fill="#050505"/>
  <path d="M39 14h8v40h-8zM50 14h2l0 16.7L39 19.8v-5.6h5.6L52 20.2V14h10v40h-2.3L50 46.4V54H39V14Z" fill="url(#blue)"/>
</svg>
